Coordinates
version=1
nRows=8
nColumns=63
inDegrees=yes

Units are S.I. units (second, meters, Newtons, ...)
If the header above contains a line with 'inDegrees', this indicates whether rotational values are in degrees (yes) or radians (no).

endheader
time	pelvis_tilt	pelvis_list	pelvis_rotation	pelvis_tx	pelvis_ty	pelvis_tz	hip_flexion_r	hip_adduction_r	hip_rotation_r	knee_angle_r	knee_angle_r_beta	ankle_angle_r	subtalar_angle_r	mtp_angle_r	hip_flexion_l	hip_adduction_l	hip_rotation_l	knee_angle_l	knee_angle_l_beta	ankle_angle_l	subtalar_angle_l	mtp_angle_l	L5_S1_Flex_Ext	L5_S1_Lat_Bending	L5_S1_axial_rotation	L4_L5_Flex_Ext	L4_L5_Lat_Bending	L4_L5_axial_rotation	L3_L4_Flex_Ext	L3_L4_Lat_Bending	L3_L4_axial_rotation	L2_L3_Flex_Ext	L2_L3_Lat_Bending	L2_L3_axial_rotation	L1_L2_Flex_Ext	L1_L2_Lat_Bending	L1_L2_axial_rotation	L1_T12_Flex_Ext	L1_T12_Lat_Bending	L1_T12_axial_rotation	Abs_r3	Abs_r2	Abs_r1	Abs_t1	Abs_t2	neck_flexion	neck_bending	neck_rotation	arm_flex_r	arm_add_r	arm_rot_r	elbow_flex_r	pro_sup_r	wrist_flex_r	wrist_dev_r	arm_flex_l	arm_add_l	arm_rot_l	elbow_flex_l	pro_sup_l	wrist_flex_l	wrist_dev_l
      0.00000000	     -2.07656431	     -1.06100216	     86.23165366	      0.18052883	      0.96454101	      0.41882066	     -2.06953549	     -4.73258618	     -5.51724460	      6.91295760	      0.12065387	     27.50350807	     16.00631341	      0.00000000	     -4.92827441	      1.75149260	      1.12910708	      2.86509400	      0.05000532	     15.94625010	    -10.37855233	      0.00000000	      0.30181079	     -0.67108871	      1.84603614	      0.56049281	     -0.89254799	      1.96141339	      0.49584494	     -1.63168509	      1.96141339	      0.34493955	     -1.63168509	      1.61528162	      0.28026150	     -1.36848410	      1.49990436	      0.17245468	     -1.03951641	      1.38452710	      2.15580428	     -7.59148972	     10.26709917	      0.00000000	      0.00000000	     19.49724639	      5.66199494	    -28.19347346	     31.37878338	     -6.65920560	     56.45432142	     39.28052711	     87.07022291	      2.47094686	     11.93669907	     34.28115332	     -5.04452578	     54.52169036	     36.65615885	     62.42349802	      0.75006398	     11.03201057
      0.01923077	     -1.86789657	     -1.22868999	     86.98308805	      0.17768499	      0.96464079	      0.41960226	     -1.83931573	     -4.66135779	     -7.11861119	      7.41499201	      0.12941602	     27.27524586	     16.35987103	      0.00000000	     -4.51986525	      1.65298478	      2.59353599	      3.34879501	      0.05844750	     16.21262728	    -11.89565650	      0.00000000	      0.29307746	     -0.59618552	      1.71439673	      0.54427415	     -0.79292674	      1.82154653	      0.48149696	     -1.44956547	      1.82154653	      0.33495823	     -1.44956547	      1.50009714	      0.27215173	     -1.21574151	      1.39294734	      0.16746446	     -0.92349137	      1.28579755	      2.09342299	     -6.74416985	      9.53496030	      0.00000000	      0.00000000	     18.67162336	      5.36496651	    -26.71160288	     30.52944552	     -7.25979947	     54.16689652	     40.24416053	     87.19252825	      0.94751428	     12.65665401	     33.30539731	     -5.10399196	     53.64220044	     37.75610427	     65.62549401	     -0.87607939	      8.90086959
      0.03846154	     -1.70350942	     -1.43501318	     87.45715295	      0.17565063	      0.96454222	      0.42009428	     -1.53128118	     -4.61599732	     -8.22344481	      7.86563126	      0.13728116	     27.16706264	     16.58052471	      0.00000000	     -4.12434946	      1.58945823	      3.64154943	      3.66891137	      0.06403458	     16.41660326	    -13.11008080	      0.00000000	      0.30189624	     -0.54257655	      1.61742924	      0.56065151	     -0.72162681	      1.71851857	      0.49598534	     -1.31922062	      1.71851857	      0.34503721	     -1.31922062	      1.41525058	      0.28034085	     -1.10642210	      1.31416126	      0.17250351	     -0.84045107	      1.21307193	      2.15641466	     -6.13773442	      8.99565620	      0.00000000	      0.00000000	     18.20683977	      5.07772380	    -25.83688008	     29.71591406	     -7.52503639	     51.93675417	     40.89062225	     87.14954220	     -0.02911137	     13.16328620	     32.25262573	     -4.78419909	     50.95734887	     38.35625804	     69.97027185	     -0.79050181	      8.59607402
      0.05769231	     -1.60589386	     -1.54251759	     87.80192826	      0.17437838	      0.96448372	      0.42049148	     -1.36693714	     -4.58863372	     -8.93739221	      8.14036044	      0.14207609	     27.06837779	     16.62317359	      0.00000000	     -3.81890376	      1.51749744	      3.28455922	      3.95172932	      0.06897069	     17.08213746	    -12.25532712	      0.00000000	      0.30310482	     -0.51398557	      1.56557748	      0.56289596	     -0.68360081	      1.66342607	      0.49797091	     -1.24970452	      1.66342607	      0.34641850	     -1.24970452	      1.36988029	      0.28146314	     -1.04811938	      1.27203170	      0.17319409	     -0.79616365	      1.17418311	      2.16504743	     -5.81430758	      8.70727226	      0.00000000	      0.00000000	     17.94024899	      4.87409277	    -25.59580995	     29.12564878	     -7.67348322	     50.38166569	     41.27875523	     87.07050835	     -0.96416210	     13.32982187	     32.11252782	     -4.57753062	     50.72863278	     38.43495555	     71.30188127	     -1.10933710	      8.19555812
      0.07692308	     -1.58289131	     -1.56769800	     87.92479326	      0.17384479	      0.96448591	      0.42080173	     -1.33904177	     -4.62275297	     -9.58126762	      8.19380969	      0.14300896	     26.97270539	     17.07999032	      0.00000000	     -3.65809950	      1.49224437	      2.22590484	      4.07178018	      0.07106597	     17.76707855	    -10.65864396	      0.00000000	      0.29785009	     -0.50486645	      1.52410120	      0.55313740	     -0.67147238	      1.61935752	      0.48933791	     -1.22753230	      1.61935752	      0.34041287	     -1.22753230	      1.33358855	      0.27658359	     -1.02952367	      1.23833222	      0.17019154	     -0.78203814	      1.14307590	      2.12751339	     -5.71115030	      8.47659364	      0.00000000	      0.00000000	     17.97848529	      4.94441243	    -25.43130929	     29.10975364	     -7.67002332	     50.42309543	     41.22853240	     86.37689176	     -1.64698039	     13.11613851	     32.22959079	     -4.57563748	     50.94432879	     38.45276535	     70.37351905	     -1.19572680	      8.34987678
      0.09615385	     -1.54643337	     -1.65778621	     88.18535815	      0.17314518	      0.96426564	      0.42081915	     -1.22475813	     -4.59485414	     -9.63583102	      8.33000274	      0.14538597	     26.97464974	     16.61594313	      0.00000000	     -3.60006722	      1.48764764	      2.89041962	      3.81521083	      0.06658799	     17.72080587	    -11.14133140	      0.00000000	      0.31183935	     -0.49612063	      1.48003821	      0.57911686	     -0.65984044	      1.57254060	      0.51232087	     -1.20626770	      1.57254060	      0.35640119	     -1.20626770	      1.29503343	      0.28957402	     -1.01168919	      1.20253104	      0.17818501	     -0.76849086	      1.11002866	      2.22743730	     -5.61221579	      8.23152850	      0.00000000	      0.00000000	     17.85127371	      4.55582116	    -25.62790503	     28.98425216	     -7.77770792	     50.24243451	     41.41933580	     87.13152239	     -1.30067764	     13.19807060	     32.24339559	     -4.23189462	     50.10289627	     38.20936848	     71.77584851	     -0.41704131	      9.19862509
      0.11538462	     -1.53358673	     -1.60215494	     88.15591432	      0.17309289	      0.96424228	      0.42100623	     -1.23778006	     -4.60790793	     -9.78495014	      8.39114569	      0.14645312	     27.03755522	     16.80274386	      0.00000000	     -3.59977216	      1.43889393	      1.31582210	      3.77552380	      0.06589532	     18.55571941	     -8.65867434	      0.00000000	      0.30687130	     -0.48951513	      1.42387392	      0.56989068	     -0.65105512	      1.51286604	      0.50415885	     -1.19020709	      1.51286604	      0.35072320	     -1.19020709	      1.24588968	      0.28496069	     -0.99821925	      1.15689756	      0.17534626	     -0.75825894	      1.06790544	      2.19195098	     -5.53749306	      7.91915960	      0.00000000	      0.00000000	     17.82077553	      4.67401989	    -24.96179529	     30.19080818	     -8.03148716	     53.96159261	     41.16268996	     87.74004213	     -0.61882159	     12.16422809	     32.05138766	     -4.20319093	     48.59325510	     38.33051730	     72.58136230	      0.45635856	     10.39509861
      0.13461538	     -1.42089131	     -1.45515503	     88.00870113	      0.17326928	      0.96433184	      0.42117723	     -1.36412373	     -4.49054870	     -9.58679106	      8.36498277	      0.14599649	     27.03569806	     16.85790087	      0.00000000	     -3.82017170	      1.34654692	      1.28598533	      3.53582599	      0.06171181	     18.71435887	     -8.51611692	      0.00000000	      0.29801308	     -0.46720603	      1.37598295	      0.55344008	     -0.62138402	      1.46198188	      0.48960568	     -1.13596473	      1.46198188	      0.34059914	     -1.13596473	      1.20398508	      0.27673494	     -0.95272653	      1.11798615	      0.17028467	     -0.72370213	      1.03198721	      2.12867759	     -5.28512801	      7.65280437	      0.00000000	      0.00000000	     17.53033493	      5.05263973	    -23.74572385	     32.16881795	     -8.29956918	     59.85214262	     40.59298835	     88.34792752	      0.53401181	     10.30488770	     32.03811595	     -4.46621090	     48.37227397	     38.58519217	     71.11355754	      0.66989330	     11.24269418
